<svg id="Layer_1" data-name="Layer 1" xmlns="http://www.w3.org/2000/svg" xmlns:xlink="http://www.w3.org/1999/xlink" viewBox="0 0 799.987 200.857"><defs><style>.cls-1,.cls-4,.cls-5{fill:#5d925d;}.cls-1,.cls-10,.cls-11,.cls-12,.cls-13,.cls-14,.cls-15,.cls-17,.cls-18,.cls-4,.cls-7,.cls-8,.cls-9{stroke:#fff;}.cls-1,.cls-10,.cls-11,.cls-12,.cls-14,.cls-15,.cls-17,.cls-18,.cls-4,.cls-7,.cls-8,.cls-9{stroke-miterlimit:10;}.cls-2{font-size:1px;font-family:Staatliches-Regular, Staatliches;}.cls-13,.cls-16,.cls-2{fill:#231f20;}.cls-3{letter-spacing:-0.014em;}.cls-10,.cls-11,.cls-4,.cls-9{stroke-width:5px;}.cls-6{fill:#c1c2c4;}.cls-7{fill:#fff;}.cls-15,.cls-7,.cls-8{stroke-width:0.25px;}.cls-8{fill:#dfce6d;}.cls-9{fill:none;}.cls-10{fill:#ffe3aa;}.cls-11{fill:#ed1c24;}.cls-12{fill:#d14e4e;}.cls-13{font-size:60px;}.cls-13,.cls-16{font-family:HelveticaInseratLT-Roman, HelveticaInserat LT;}.cls-14{fill:#6263ab;}.cls-15{fill:#c0c2c4;}.cls-16{font-size:84.797px;}.cls-17{fill:url(#linear-gradient);}.cls-18{fill:url(#linear-gradient-2);}</style><linearGradient id="linear-gradient" x1="86.996" y1="169.967" x2="57.99" y2="219.222" gradientTransform="matrix(1.204, 0.901, -0.548, 0.732, 173.596, -20.855)" gradientUnits="userSpaceOnUse"><stop offset="0" stop-color="#fff33b"/><stop offset="0.024" stop-color="#fee72e"/><stop offset="0.069" stop-color="#fed51b"/><stop offset="0.116" stop-color="#fdca10"/><stop offset="0.166" stop-color="#fdc70c"/><stop offset="0.391" stop-color="#f3903f"/><stop offset="0.663" stop-color="#ed683c"/><stop offset="1" stop-color="#e93e3a"/></linearGradient><linearGradient id="linear-gradient-2" x1="-101.855" y1="132.784" x2="-101.855" y2="132.784" gradientTransform="matrix(1, 0, 0, 1, 0, 0)" xlink:href="#linear-gradient"/></defs><rect class="cls-1" x="93.574" y="127.836" width="526.28" height="39.979"/><text class="cls-2" transform="translate(479.761 7.195)"><tspan class="cls-3">L</tspan><tspan x="0.383" y="0">orem ipsum</tspan></text><rect class="cls-1" x="93.574" y="6.091" width="526.28" height="39.598"/><path class="cls-4" d="M660.874,204.935" transform="translate(-41.02 -37.12)"/><polyline class="cls-4" points="619.854 127.454 662.505 127.454 662.505 167.815"/><polyline class="cls-5" points="618.854 6.091 661.082 6.091 661.082 45.689 618.854 45.689"/><rect class="cls-5" x="619.268" y="126.687" width="41.63" height="40.56"/><rect class="cls-6" x="26.904" width="31.071" height="175.974"/><path class="cls-6" d="M67.924,213.094c-40.373,0-31.072-175.974,0-175.974" transform="translate(-41.02 -37.12)"/><polygon class="cls-7" points="97.019 172.314 62.916 172.314 62.916 3.695 97.019 3.695 97.019 9.483 97.019 172.314"/><rect class="cls-8" x="68.587" y="12.254" width="22.761" height="150.915" rx="2.546"/><path class="cls-9" d="M660.874,82.808" transform="translate(-41.02 -37.12)"/><polygon class="cls-7" points="799.731 84.248 747.257 54.941 747.257 113.555 799.731 84.248"/><polygon class="cls-10" points="662.505 6.656 742.601 55.211 742.601 113.555 662.505 169.318 619.854 127.454 662.505 85.591 619.854 45.689 662.505 6.656"/><line class="cls-9" x1="662.082" y1="169.995" x2="96.596" y2="169.995"/><line class="cls-9" x1="619.854" y1="127.454" x2="91.348" y2="127.454"/><line class="cls-11" x1="91.348" y1="45.689" x2="619.854" y2="45.689"/><line class="cls-11" x1="662.223" y1="6.091" x2="96.737" y2="6.091"/><path class="cls-12" d="M244.822,67.791s-25.7-6.909-32.705,1.319c-9.387,11.03-38.866,76.871-38.866,76.871l26.822,35.142s44.653-53.038,51.231-68.629C256.168,100.967,244.822,67.791,244.822,67.791Zm-71.571,78.19,11.806-36.108c-6.809-.965-27.629-8.473-45.542,22.956Zm52.882-41.509c1.933,2.74,2.753,6.818,2.126,11.682-1.317,10.253-8.979,20.7-17.677,22.924-9.37,2.4-15.036-5.814-12.284-17.715,2.541-10.988,11.171-19.869,19.09-20.663A9.09,9.09,0,0,1,226.133,104.472Zm-26.06,76.651,15.55,55.669c22.213-33.38,11.624-67.276,9.537-77.811Z" transform="translate(-41.02 -37.12)"/><text x="-41.02" y="-37.12"/><text class="cls-13" transform="translate(103.724 111.175) scale(1.025 1)"><tspan xml:space="preserve">R    CKET APPLIANCE</tspan></text><rect class="cls-14" x="206.258" y="103.028" width="13.251" height="40.21" rx="6.626" transform="translate(49.068 -127.065) rotate(30)"/><polygon class="cls-15" points="789.73 84.248 747.193 60.491 747.193 108.005 789.73 84.248"/><text class="cls-16" transform="matrix(0.723, 0.418, -0.5, 0.866, 142.038, 101.374)">o</text><path class="cls-17" d="M186.322,179.475c6.343,16.052-58.355,36.011-58.355,36.011s10.215-51.021,49.189-56.5l-9.984,21.8Z" transform="translate(-41.02 -37.12)"/><path class="cls-18" d="M-101.855,132.784" transform="translate(-41.02 -37.12)"/></svg>